# 3ds Max Wavefront OBJ Exporter v0.97b - (c)2007 guruware
# File Created: 22.04.2014 11:36:05

mtllib Food_Herbs01.mtl

#
# object Herb01_Plane007
#

v  0.128461 -0.006272 -0.725229
v  -0.117380 0.000962 -0.737692
v  -0.120075 0.013932 0.003475
v  0.124798 -0.007166 0.015938
# 4 vertices

vn 0.041464 0.999047 -0.013644
vn 0.030246 0.999397 -0.017041
vn 0.074549 0.997215 -0.002272
vn 0.085768 0.996314 0.001704
# 4 vertex normals

vt 0.999952 0.000638 0.000000
vt 0.735518 0.000638 0.000000
vt 0.735519 0.999926 0.000000
vt 0.999952 0.999926 0.000000
# 4 texture coords

g Herb01_Plane007
usemtl Material__25
s off
f 1/1/1 2/2/2 3/3/3 4/4/4 
# 1 polygons

#
# object Herb01_Plane008
#

v  0.080271 -0.112781 -0.721945
v  -0.046713 0.115145 -0.750043
v  -0.040306 0.115472 -0.008877
v  0.039499 -0.113143 0.019221
# 4 vertices

vn 0.889266 0.457378 0.003409
vn 0.873929 0.485989 -0.007951
vn 0.929326 0.367143 0.039476
vn 0.940846 0.334826 0.051970
# 4 vertex normals

vt 0.999952 0.000638 0.000000
vt 0.735518 0.000638 0.000000
vt 0.735519 0.999926 0.000000
vt 0.999952 0.999926 0.000000
# 4 texture coords

g Herb01_Plane008
usemtl Material__25
s off
f 5/5/5 6/6/6 7/7/7 8/8/8 
# 1 polygons

#
# object Herb01_Plane009
#

v  -0.109772 -0.054690 -0.731647
v  0.114692 0.050439 -0.732482
v  0.124961 0.047755 0.008684
v  -0.111330 -0.042075 0.009519
# 4 vertices

vn 0.409953 -0.912098 -0.003988
vn 0.424098 -0.905565 -0.009656
vn 0.369750 -0.929062 0.011360
vn 0.355410 -0.934565 0.016471
# 4 vertex normals

vt 0.735519 0.000638 0.000000
vt 0.999952 0.000638 0.000000
vt 0.999952 0.999926 0.000000
vt 0.735518 0.999926 0.000000
# 4 texture coords

g Herb01_Plane009
usemtl Material__25
s off
f 9/9/9 10/10/10 11/11/11 12/12/12 
# 1 polygons

#
# object Herb01_Plane010
#

v  0.103656 -0.067539 -0.717646
v  -0.099784 0.065230 -0.740106
v  -0.094052 0.075875 0.001060
v  0.103315 -0.068997 0.023521
# 4 vertices

vn 0.556549 0.830721 -0.012499
vn 0.547713 0.836515 -0.015908
vn 0.583187 0.812336 -0.001704
vn 0.591622 0.806213 0.001988
# 4 vertex normals

vt 0.735519 0.000638 0.000000
vt 0.999952 0.000638 0.000000
vt 0.999952 0.999926 0.000000
vt 0.735518 0.999926 0.000000
# 4 texture coords

g Herb01_Plane010
usemtl Material__25
s off
f 13/13/13 14/14/14 15/15/15 16/16/16 
# 1 polygons

#
# object Herb01_Plane011
#

v  -0.044054 -0.100381 -0.723392
v  0.071453 0.103542 -0.746797
v  0.076109 0.101660 -0.005630
v  -0.079753 -0.097719 0.017774
# 4 vertices

vn 0.855186 -0.518317 0.002271
vn 0.869760 -0.493436 -0.006247
vn 0.806068 -0.590982 0.031523
vn 0.789470 -0.612463 0.040329
# 4 vertex normals

vt 0.999952 0.000638 0.000000
vt 0.735518 0.000638 0.000000
vt 0.735519 0.999926 0.000000
vt 0.999952 0.999926 0.000000
# 4 texture coords

g Herb01_Plane011
usemtl Material__25
s off
f 17/17/17 18/18/18 19/19/19 20/20/20 
# 1 polygons

#
# object Herb01_Plane012
#

v  0.025274 -0.123526 -0.722650
v  0.010173 0.123877 -0.749919
v  0.013974 0.124718 -0.008752
v  -0.016050 -0.119531 0.018517
# 4 vertices

vn 0.999648 0.025631 0.006819
vn 0.998167 0.060350 -0.004542
vn 0.995747 -0.081082 0.043736
vn 0.991712 -0.115657 0.055947
# 4 vertex normals

vt 0.735519 0.000638 0.000000
vt 0.999952 0.000638 0.000000
vt 0.999952 0.999926 0.000000
vt 0.735518 0.999926 0.000000
# 4 texture coords

g Herb01_Plane012
usemtl Material__25
s off
f 21/21/21 22/22/22 23/23/23 24/24/24 
# 1 polygons

